<svg width="200" height="200" viewBox="0 0 200 200" fill="none" xmlns="http://www.w3.org/2000/svg">
<g clip-path="url(#clip0_17_2)">
<path d="M196.228 91.0913L108.906 3.77412C103.88 -1.25478 95.7242 -1.25478 90.6922 3.77412L72.5594 21.9069L95.5617 44.9093C100.907 43.103 107.037 44.3147 111.298 48.5757C115.579 52.864 116.782 59.046 114.932 64.4085L137.1 86.5772C142.463 84.7296 148.652 85.9249 152.935 90.2155C158.922 96.1999 158.922 105.899 152.935 111.887C146.947 117.876 137.248 117.876 131.256 111.887C126.753 107.38 125.641 100.766 127.92 95.2187L107.247 74.5452L107.245 128.949C108.743 129.69 110.112 130.669 111.298 131.848C117.284 137.832 117.284 147.532 111.298 153.525C105.309 159.511 95.6055 159.511 89.6258 153.525C83.6391 147.532 83.6391 137.833 89.6258 131.848C91.0605 130.413 92.7655 129.276 94.6422 128.504V73.5929C92.7627 72.8256 91.0568 71.6882 89.6258 70.2483C85.0898 65.7187 83.9992 59.0632 86.3234 53.4937L63.6484 30.8163L3.77344 90.6874C-1.25781 95.721 -1.25781 103.878 3.77344 108.908L91.0969 196.226C96.1242 201.256 104.279 201.256 109.312 196.226L196.227 109.313C201.257 104.282 201.258 96.1202 196.228 91.0913Z" fill="#FFF0E9"/>
</g>
<defs>
<clipPath id="clip0_17_2">
<rect width="200" height="200" fill="white"/>
</clipPath>
</defs>
</svg>
