<svg width="201" height="221" viewBox="0 0 201 221" fill="none" xmlns="http://www.w3.org/2000/svg">
<g clip-path="url(#clip0_17_7)">
<path d="M91.3232 2.53296C96.7881 -0.595064 103.906 -0.609193 109.366 2.53296C136.835 18.0545 164.313 33.5518 191.778 49.0828C196.944 51.9926 200.399 57.7416 200.346 63.6938V157.078C200.385 163.276 196.588 169.163 191.138 172.007C163.759 187.443 136.394 202.897 109.02 218.334C103.442 221.523 96.1813 221.277 90.7777 217.826C82.5695 213.068 74.3472 208.333 66.1382 203.58C64.4607 202.58 62.5698 201.784 61.3853 200.157C62.4324 198.746 64.3045 198.57 65.8258 197.954C69.2521 196.864 72.3989 195.116 75.5466 193.418C76.3425 192.874 77.3143 193.082 78.0772 193.57C85.0962 197.594 92.0533 201.736 99.0958 205.722C100.598 206.589 102.119 205.438 103.404 204.722C130.271 189.537 157.171 174.409 184.034 159.22C185.029 158.741 185.579 157.684 185.498 156.594C185.517 125.789 185.503 94.978 185.508 64.1727C185.622 62.9356 184.906 61.7982 183.787 61.2919C156.503 45.9265 129.233 30.5376 101.954 15.1683C101.481 14.8434 100.921 14.669 100.348 14.6682C99.7742 14.6673 99.2138 14.84 98.7402 15.1636C71.4609 30.5376 44.1957 45.9406 16.9164 61.3052C15.8017 61.8123 15.0537 62.9309 15.1863 64.1727C15.191 94.978 15.1863 125.789 15.1863 156.599C15.139 157.131 15.2559 157.665 15.5211 158.128C15.7864 158.592 16.1873 158.963 16.6699 159.192C23.9495 163.32 31.2385 167.419 38.5229 171.533C42.6266 173.741 47.6652 175.054 52.1865 173.361C56.1764 171.93 58.9731 167.859 58.897 163.623C58.9347 132.997 58.8782 102.367 58.9253 71.7458C58.8256 70.3863 60.1152 69.2631 61.4371 69.391C64.9348 69.3675 68.4373 69.3439 71.935 69.4004C73.395 69.3675 74.3997 70.8314 74.2192 72.2011C74.2051 103.021 74.2569 133.841 74.1957 164.66C74.2051 172.874 70.8306 181.811 63.2331 185.83C53.8733 190.679 42.3048 189.651 33.0581 185.001C25.0531 181.006 17.414 176.291 9.55118 172.011C4.08715 169.182 0.309192 163.272 0.347655 157.078V63.6938C0.290353 57.6183 3.88307 51.765 9.20973 48.8975C36.584 33.449 63.9536 17.9886 91.3232 2.53296Z" fill="#FFF0E9"/>
<path d="M115.205 67.2206C127.144 66.4522 139.925 66.7654 150.669 72.647C158.987 77.1542 163.598 86.6136 163.745 95.8548C163.513 97.1013 162.21 97.7889 161.02 97.7034C157.556 97.6987 154.091 97.7505 150.627 97.6798C149.158 97.7363 148.303 96.3815 148.119 95.0824C147.124 90.6608 144.712 86.2816 140.551 84.1489C134.162 80.9502 126.754 81.1111 119.788 81.1778C114.702 81.4479 109.233 81.8882 104.925 84.8789C101.617 87.1442 100.612 91.7173 101.793 95.4003C102.906 98.0448 105.959 98.8981 108.456 99.6846C122.844 103.448 138.091 103.073 152.205 108.025C158.048 110.044 163.764 113.969 165.764 120.087C168.38 128.287 167.233 138.087 161.4 144.67C156.669 150.087 149.778 153.035 142.906 154.637C133.764 156.675 124.276 156.727 114.992 155.822C106.262 154.826 97.1766 152.533 90.437 146.584C84.6739 141.58 81.8591 133.784 82.1386 126.258C82.2053 124.987 83.4706 124.101 84.6881 124.206C88.1764 124.177 91.6647 124.168 95.153 124.21C96.5463 124.111 97.5793 125.315 97.6507 126.628C98.2944 130.841 99.8776 135.262 103.551 137.76C110.641 142.334 119.537 142.021 127.655 142.149C134.38 141.85 141.93 141.76 147.418 137.315C150.314 134.78 151.172 130.538 150.389 126.889C149.541 123.808 146.318 122.372 143.551 121.433C129.347 116.94 113.93 118.57 99.8635 113.489C94.153 111.471 88.6309 107.656 86.4369 101.789C83.3756 93.4858 84.7783 83.2156 91.2236 76.8551C97.5079 70.5284 106.58 68.0927 115.205 67.2206Z" fill="#FFF0E9"/>
</g>
<defs>
<clipPath id="clip0_17_7">
<rect width="201" height="221" fill="white"/>
</clipPath>
</defs>
</svg>
