<svg width="200" height="242" viewBox="0 0 200 242" fill="none" xmlns="http://www.w3.org/2000/svg">
<g clip-path="url(#clip0_17_11)">
<path fill-rule="evenodd" clip-rule="evenodd" d="M198.683 184L115.626 7.61847C114.594 5.44776 112.995 3.59646 110.997 2.26052C108.998 0.924577 106.676 0.153702 104.276 0.0294884C101.871 -0.131622 99.4688 0.369663 97.3292 1.47883C95.1897 2.58799 93.3952 4.26256 92.1409 6.32043L2.05725 152.226C0.687379 154.429 -0.0260082 156.977 0.000724678 159.571C0.0274575 162.165 0.793203 164.698 2.20818 166.872L46.2508 235.077C47.9171 237.637 50.3664 239.59 53.2334 240.644C56.1004 241.698 59.2314 241.798 62.1593 240.927L189.971 203.121C191.895 202.558 193.676 201.589 195.194 200.279C196.711 198.968 197.93 197.348 198.767 195.526C199.593 193.713 200.013 191.743 200 189.751C199.986 187.76 199.539 185.795 198.689 183.994L198.683 184ZM180.087 191.565L71.632 223.636C68.3235 224.62 65.1478 221.752 65.8361 218.413L104.584 32.8789C105.308 29.4074 110.102 28.858 111.618 32.0698L183.348 184.393C183.665 185.072 183.831 185.811 183.835 186.56C183.838 187.309 183.679 188.051 183.369 188.732C183.058 189.414 182.604 190.021 182.036 190.51C181.468 190.999 180.808 191.359 180.087 191.565Z" fill="#FFF0E9"/>
</g>
<defs>
<clipPath id="clip0_17_11">
<rect width="200" height="242" fill="white"/>
</clipPath>
</defs>
</svg>
