<svg width="200" height="179" viewBox="0 0 200 179" fill="none" xmlns="http://www.w3.org/2000/svg">
<g clip-path="url(#clip0_17_13)">
<path d="M200 89.1498C200 75.9007 183.408 63.3447 157.97 55.5583C163.84 29.6308 161.231 9.00304 149.735 2.39888C147.085 0.849756 143.987 0.115961 140.603 0.115961V9.20687C142.479 9.20687 143.987 9.57377 145.251 10.2668C150.795 13.4466 153.2 25.5542 151.325 41.127C150.876 44.959 150.143 48.9949 149.246 53.1123C141.256 51.1555 132.532 49.6471 123.359 48.6688C117.856 41.127 112.148 34.2782 106.4 28.2855C119.69 15.9333 132.165 9.16611 140.644 9.16611V0.0751953C129.433 0.0751953 114.757 8.06541 99.9185 21.926C85.0795 8.14695 70.4036 0.238262 59.1928 0.238262V9.32917C67.6315 9.32917 80.1468 16.0556 93.4366 28.3263C87.7293 34.319 82.022 41.127 76.6001 48.6688C67.3869 49.6471 58.6629 51.1555 50.6726 53.1531C49.735 49.0764 49.042 45.1221 48.5528 41.3308C46.6368 25.758 49.0012 13.6504 54.5047 10.4299C55.7277 9.69607 57.3176 9.36994 59.1928 9.36994V0.279027C55.7684 0.279027 52.6702 1.01282 49.9796 2.56195C38.5243 9.1661 35.956 29.7531 41.8671 55.599C16.5104 63.4262 0 75.9415 0 89.1498C0 102.399 16.5919 114.955 42.0302 122.741C36.1598 148.669 38.7689 169.297 50.265 175.901C52.9148 177.45 56.013 178.184 59.4374 178.184C70.6482 178.184 85.3241 170.193 100.163 156.333C115.002 170.112 129.678 178.021 140.889 178.021C144.313 178.021 147.411 177.287 150.102 175.738C161.557 169.133 164.126 148.546 158.214 122.701C183.49 114.914 200 102.358 200 89.1498ZM146.922 61.9586C145.414 67.2175 143.539 72.6394 141.419 78.0613C139.747 74.8 137.994 71.5387 136.078 68.2774C134.203 65.0161 132.205 61.8363 130.208 58.7381C135.997 59.5941 141.582 60.6541 146.922 61.9586ZM128.251 105.375C125.071 110.878 121.81 116.096 118.426 120.948C112.352 121.478 106.196 121.763 100 121.763C93.8443 121.763 87.6885 121.478 81.6551 120.988C78.2715 116.137 74.9694 110.96 71.7896 105.497C68.6914 100.157 65.8785 94.7348 63.3102 89.2721C65.8378 83.8094 68.6914 78.3467 71.7489 73.0063C74.9287 67.5028 78.19 62.2847 81.5736 57.4335C87.6478 56.9036 93.8035 56.6182 100 56.6182C106.156 56.6182 112.311 56.9036 118.345 57.3928C121.728 62.244 125.031 67.4213 128.21 72.884C131.309 78.2244 134.121 83.6463 136.69 89.109C134.121 94.5717 131.309 100.034 128.251 105.375ZM141.419 100.075C143.62 105.538 145.495 111.001 147.044 116.3C141.704 117.605 136.078 118.705 130.249 119.562C132.246 116.423 134.244 113.202 136.119 109.9C137.994 106.639 139.747 103.336 141.419 100.075ZM100.082 143.573C96.2903 139.659 92.499 135.297 88.7485 130.528C92.4174 130.691 96.168 130.813 99.9592 130.813C103.791 130.813 107.583 130.732 111.292 130.528C107.623 135.297 103.832 139.659 100.082 143.573ZM69.7513 119.562C63.9625 118.705 58.3775 117.646 53.0371 116.341C54.5455 111.082 56.4207 105.66 58.5406 100.238C60.212 103.5 61.9649 106.761 63.881 110.022C65.797 113.284 67.7538 116.463 69.7513 119.562ZM99.8777 34.7266C103.669 38.6402 107.46 43.0022 111.211 47.7719C107.542 47.6088 103.791 47.4865 100 47.4865C96.168 47.4865 92.3767 47.5681 88.6669 47.7719C92.3359 43.0022 96.1272 38.6402 99.8777 34.7266ZM69.7106 58.7381C67.713 61.8771 65.7154 65.0976 63.8402 68.3997C61.9649 71.661 60.212 74.9223 58.5406 78.1836C56.3392 72.7209 54.4639 67.2582 52.9148 61.9586C58.2552 60.6948 63.881 59.5941 69.7106 58.7381ZM32.817 109.778C18.3857 103.622 9.05014 95.5501 9.05014 89.1498C9.05014 82.7495 18.3857 74.6369 32.817 68.522C36.3229 67.0136 40.1549 65.6683 44.1093 64.4046C46.4329 72.3948 49.4904 80.7112 53.2817 89.2313C49.5312 97.7107 46.5145 105.986 44.2316 113.936C40.1957 112.672 36.3636 111.286 32.817 109.778ZM54.7493 168.033C49.2051 164.853 46.7998 152.745 48.6751 137.173C49.1235 133.341 49.8573 129.305 50.7542 125.187C58.7444 127.144 67.4684 128.652 76.6409 129.631C82.1443 137.173 87.8516 144.021 93.5997 150.014C80.3098 162.366 67.8353 169.133 59.3559 169.133C57.5214 169.093 55.9723 168.726 54.7493 168.033ZM151.447 136.969C153.363 152.542 150.999 164.649 145.495 167.87C144.272 168.604 142.682 168.93 140.807 168.93C132.369 168.93 119.853 162.203 106.563 149.933C112.271 143.94 117.978 137.132 123.4 129.59C132.613 128.612 141.337 127.103 149.327 125.106C150.265 129.223 150.999 133.178 151.447 136.969ZM167.142 109.778C163.636 111.286 159.804 112.631 155.85 113.895C153.526 105.905 150.469 97.5884 146.678 89.0683C150.428 80.5888 153.445 72.3133 155.728 64.3638C159.764 65.6276 163.596 67.0136 167.183 68.522C181.614 74.6777 190.95 82.7495 190.95 89.1498C190.909 95.5501 181.574 103.663 167.142 109.778Z" fill="#FFF0E9"/>
<path d="M99.9592 107.78C110.248 107.78 118.589 99.439 118.589 89.1498C118.589 78.8606 110.248 70.5195 99.9592 70.5195C89.67 70.5195 81.329 78.8606 81.329 89.1498C81.329 99.439 89.67 107.78 99.9592 107.78Z" fill="#FFF0E9"/>
</g>
<defs>
<clipPath id="clip0_17_13">
<rect width="200" height="179" fill="white"/>
</clipPath>
</defs>
</svg>
