<svg width="201" height="241" viewBox="0 0 201 241" fill="none" xmlns="http://www.w3.org/2000/svg">
<path fill-rule="evenodd" clip-rule="evenodd" d="M89.6327 10.9313C121.502 -9.36575 165.584 0.0971376 187.902 32.0224V32.1948C190.543 35.893 192.809 39.8446 194.667 43.9913C196.527 48.1373 197.967 52.4598 198.969 56.8905C199.972 61.3252 200.529 65.8442 200.633 70.3872C200.737 74.9301 200.393 79.4731 199.599 83.948C199.21 86.0811 198.713 88.1942 198.115 90.2753C197.514 92.3603 196.808 94.4133 196.002 96.4261C195.196 98.439 194.286 100.412 193.283 102.332C192.277 104.253 191.174 106.126 189.983 107.934C191.716 111.238 193.171 114.678 194.338 118.219C195.505 121.763 196.375 125.396 196.94 129.081C197.51 132.766 197.77 136.495 197.722 140.224C197.674 143.953 197.317 147.67 196.656 151.339C195.858 155.714 194.611 159.996 192.931 164.11C191.251 168.228 189.149 172.161 186.659 175.842C184.168 179.526 181.302 182.942 178.107 186.035C174.911 189.13 171.407 191.885 167.641 194.255L111.674 229.765C79.8049 250.062 35.7263 240.599 13.4083 208.674C10.7619 204.977 8.49646 201.023 6.63595 196.877C4.77545 192.731 3.33597 188.409 2.33355 183.978C0.3239 175.09 0.112586 165.891 1.71204 156.92C2.09698 154.787 2.58616 152.674 3.1836 150.589C3.78105 148.504 4.48275 146.451 5.2887 144.438C6.09465 142.425 7.00084 140.453 8.00727 138.532C9.01158 136.611 10.1116 134.741 11.3032 132.93C9.57105 129.626 8.11553 126.186 6.95272 122.642C5.78991 119.097 4.9198 115.46 4.35444 111.771C3.78907 108.086 3.52844 104.357 3.58056 100.624C3.62868 96.8953 3.98955 93.1743 4.65115 89.5054C5.44384 85.1289 6.68816 80.8464 8.36413 76.7265C10.0442 72.6085 12.1453 68.675 14.6353 64.9901C17.1253 61.3052 19.9923 57.8889 23.192 54.7975C26.3877 51.706 29.9002 48.9553 33.6653 46.5896L89.6327 10.9313ZM70.735 213.132C75.2549 213.361 79.7832 212.899 84.1635 211.761C85.1659 211.492 86.1603 211.184 87.1387 210.839C88.1211 210.494 89.0874 210.113 90.0377 209.692C90.992 209.275 91.9263 208.822 92.8445 208.333C93.7587 207.844 94.6569 207.318 95.535 206.761L151.526 171.103C153.796 169.675 155.909 168.015 157.834 166.151C159.758 164.286 161.482 162.225 162.978 160.004C164.478 157.783 165.741 155.411 166.747 152.927C167.754 150.443 168.5 147.862 168.973 145.224C169.45 142.538 169.662 139.807 169.598 137.072C169.534 134.342 169.197 131.623 168.596 128.961C167.992 126.296 167.124 123.699 166.005 121.206C164.887 118.712 163.523 116.338 161.936 114.113C159.357 110.396 156.23 107.096 152.653 104.325C149.081 101.551 145.103 99.3412 140.865 97.7694C136.622 96.1976 132.168 95.2834 127.649 95.0548C123.13 94.8303 118.607 95.2954 114.228 96.4342C113.222 96.6988 112.227 97.0036 111.245 97.3484C110.264 97.69 109.297 98.0699 108.346 98.4871C107.392 98.9082 106.457 99.3612 105.543 99.8544C104.625 100.344 103.731 100.873 102.853 101.434L81.3928 115.035C81.1281 115.204 80.8555 115.36 80.5788 115.504C80.3024 115.652 80.0201 115.788 79.7328 115.913C79.4441 116.038 79.1514 116.154 78.8586 116.258C78.5619 116.362 78.2612 116.455 77.9605 116.539C75.3229 117.202 72.5463 117.049 69.9972 116.102C68.7295 115.629 67.5411 114.967 66.4727 114.137C65.4021 113.311 64.4638 112.325 63.69 111.218C63.2114 110.546 62.7991 109.829 62.459 109.077C61.7843 107.566 61.4124 105.939 61.3643 104.285C61.3443 103.459 61.4044 102.633 61.5448 101.819C61.6891 101.025 61.9137 100.251 62.2184 99.5016C62.5237 98.7553 62.9038 98.0419 63.3531 97.3724C63.8062 96.7068 64.3275 96.0853 64.9049 95.524C65.4823 94.9626 66.1198 94.4614 66.8015 94.0324L122.789 58.4342C123.054 58.2658 123.326 58.1095 123.603 57.9611C123.88 57.8168 124.164 57.6764 124.449 57.5521C124.738 57.4278 125.03 57.3115 125.327 57.2073C125.62 57.107 125.92 57.0148 126.225 56.9346C128.85 56.2411 131.624 56.3656 134.176 57.2915C135.447 57.7488 136.639 58.3979 137.713 59.2161C138.788 60.0307 139.733 61.0042 140.516 62.1031C140.941 62.7046 141.314 63.3381 141.626 64.0037C141.943 64.6653 142.196 65.359 142.392 66.0647C142.585 66.7744 142.717 67.5002 142.781 68.2299C142.849 68.9597 142.853 69.6975 142.793 70.4313L142.597 72.5765L144.746 73.198C148.669 74.3885 152.485 75.9069 156.154 77.7369C157.986 78.6552 159.782 79.6496 161.531 80.7162C163.279 81.7867 164.983 82.9255 166.635 84.1404L169.49 86.2856L170.56 83.0658C170.701 82.6408 170.829 82.2118 170.953 81.7787C171.078 81.3497 171.198 80.9166 171.306 80.4796C171.419 80.0465 171.523 79.6095 171.619 79.1724C171.719 78.7354 171.807 78.2943 171.892 77.8532C172.373 75.1627 172.581 72.4321 172.517 69.7015C172.457 66.9709 172.12 64.2523 171.519 61.5859C170.913 58.9194 170.047 56.3251 168.929 53.8311C167.81 51.3371 166.442 48.9633 164.855 46.742C162.277 43.0246 159.148 39.7215 155.576 36.9463C152 34.1756 148.026 31.9622 143.784 30.3904C139.541 28.8146 135.087 27.9004 130.568 27.6678C126.053 27.4393 121.526 27.9044 117.147 29.0391C116.149 29.3078 115.162 29.6165 114.192 29.9614C113.218 30.3031 112.258 30.683 111.313 31.1001C110.371 31.5171 109.441 31.9702 108.53 32.4554C107.62 32.9446 106.73 33.4659 105.86 34.0192L49.8044 69.6774C45.2548 72.5393 41.353 76.3196 38.3487 80.7763C35.3464 85.233 33.3062 90.2667 32.3582 95.556C31.873 98.2425 31.6605 100.973 31.7206 103.7C31.7768 106.43 32.1056 109.149 32.703 111.815C33.3005 114.478 34.1625 117.076 35.2772 119.57C36.3879 122.064 37.7472 124.442 39.331 126.667C41.9093 130.376 45.0368 133.668 48.6055 136.435C52.1741 139.202 56.1437 141.411 60.3779 142.983C64.6122 144.551 69.0589 145.469 73.5699 145.701C78.0808 145.934 82.5997 145.477 86.9743 144.346C87.9767 144.077 88.9671 143.773 89.9455 143.428C90.9238 143.087 91.8902 142.706 92.8405 142.289C93.7908 141.872 94.721 141.419 95.6392 140.934C96.5534 140.445 97.4516 139.923 98.3257 139.37L119.786 125.745C120.05 125.577 120.323 125.416 120.6 125.272C120.876 125.124 121.157 124.987 121.446 124.859C121.734 124.735 122.023 124.622 122.32 124.518C122.616 124.414 122.917 124.322 123.218 124.241C124.537 123.901 125.9 123.76 127.264 123.828C128.625 123.897 129.967 124.173 131.245 124.646C132.52 125.12 133.719 125.785 134.798 126.619C135.877 127.453 136.819 128.444 137.597 129.562C138.078 130.232 138.495 130.946 138.832 131.695C139.173 132.449 139.437 133.231 139.618 134.033C139.802 134.839 139.906 135.657 139.926 136.479C139.946 137.305 139.886 138.127 139.746 138.941C139.602 139.735 139.377 140.513 139.076 141.263C138.772 142.012 138.395 142.73 137.942 143.4C137.488 144.069 136.971 144.691 136.39 145.256C135.809 145.818 135.17 146.318 134.485 146.748L78.602 182.41C78.3374 182.579 78.0687 182.735 77.7921 182.879C77.5114 183.028 77.2307 183.164 76.942 183.288C76.6573 183.417 76.3646 183.529 76.0679 183.633C75.7712 183.737 75.4745 183.83 75.1697 183.91C73.8505 184.255 72.4872 184.395 71.1279 184.323C69.7647 184.255 68.4254 183.982 67.1463 183.509C65.8672 183.036 64.6683 182.37 63.5937 181.536C62.5149 180.702 61.5697 179.708 60.7909 178.589C60.3659 177.995 59.993 177.366 59.6763 176.708C59.3595 176.051 59.0989 175.369 58.9024 174.663C58.5018 173.256 58.3499 171.789 58.4533 170.329L58.6458 168.184L56.5006 167.562C54.5438 166.973 52.6152 166.303 50.7186 165.549C48.822 164.8 46.9535 163.966 45.1291 163.055C43.3006 162.149 41.5123 161.163 39.7681 160.1C38.0239 159.042 36.3238 157.907 34.6758 156.704L31.8008 154.559L30.7463 157.779C30.6059 158.2 30.4696 158.625 30.3453 159.05C30.217 159.479 30.0967 159.908 29.9884 160.341C29.8762 160.77 29.7719 161.203 29.6797 161.64C29.5835 162.073 29.4952 162.51 29.4191 162.947C28.9379 165.638 28.7254 168.368 28.7855 171.099C28.8457 173.829 29.1825 176.548 29.7799 179.214C30.3819 181.879 31.2482 184.477 32.3662 186.969C33.4809 189.463 34.8442 191.837 36.436 194.062C39.0151 197.779 42.1452 201.08 45.7185 203.854C49.2948 206.626 53.2726 208.837 57.515 210.41C61.7573 211.986 66.2161 212.9 70.735 213.132Z" fill="#FFF0E9"/>
</svg>
