<svg width="201" height="120" viewBox="0 0 201 120" fill="none" xmlns="http://www.w3.org/2000/svg">
<g clip-path="url(#clip0_17_27)">
<path d="M100.495 0C73.8273 0 57.161 13.33 50.4935 39.9875C60.4948 26.6575 72.1616 21.6606 85.4941 24.9919C93.102 26.8926 98.539 32.4122 104.559 38.5194C114.362 48.4682 125.709 59.9825 150.496 59.9825C177.161 59.9825 193.83 46.6525 200.495 19.9925C190.496 33.3225 178.829 38.3219 165.494 34.9906C157.889 33.0899 152.452 27.5703 146.432 21.463C136.628 11.5143 125.279 0 100.495 0ZM50.4935 59.9825C23.8285 59.9825 7.15975 73.3125 0.494751 99.9725C10.4935 86.6425 22.1604 81.6431 35.4954 84.9769C43.1007 86.8801 48.5378 92.3971 54.5575 98.5019C64.3612 108.451 75.7105 119.967 100.495 119.967C127.162 119.967 143.828 106.637 150.496 79.9775C140.495 93.3075 128.828 98.3069 115.495 94.9731C107.888 93.0749 102.45 87.5528 96.4307 81.448C86.6271 71.4993 75.2803 59.9825 50.4935 59.9825Z" fill="#FFF0E9"/>
</g>
<defs>
<clipPath id="clip0_17_27">
<rect width="201" height="120" fill="white"/>
</clipPath>
</defs>
</svg>
