<svg width="200" height="200" viewBox="0 0 200 200" fill="none" xmlns="http://www.w3.org/2000/svg">
<path fill-rule="evenodd" clip-rule="evenodd" d="M0 0V100V200H200V0H0ZM43.85 108.5V100.35L44 100.4V92.2L79 92.05C98.25 92.05 114.1 92.1 114.1 92.25C114.3 92.35 114.3 96 114.3 100.5V108.5H88.3V182.5H69.85V108.5H43.85ZM173.2 99.15C169.7 95.5 165.8 93.2 160.7 92L160.8 91.9C157.35 91 149.1 90.7 145.6 91.4C134.8 93.4 127.25 100.4 125.1 110.4C124.4 113.25 124.65 120.35 125.4 123.25C126.4 126.6 128.55 130.65 130.9 133.25C135 137.55 139.4 140.35 149.75 144.75C158.75 148.75 161.95 150.55 163.55 152.75C164.7 154.5 165.05 155.55 165.05 157.85C165.05 160.35 164.25 162.15 162.4 163.85C158.1 167.75 149.4 168.2 142.9 164.85C140.75 163.65 137.05 160.15 135.4 157.55L134.1 155.8L128.45 159.1L120.95 163.45L119.05 164.65C118.85 165 122.4 170.35 124.25 172.35C128.95 177.5 136.6 181.5 144.6 183C148.35 183.65 156.35 183.75 159.85 183.15C171 181.3 178.8 175.65 182 167.3C184.85 159.65 183.9 149.45 179.65 142.95C175.9 137.15 169.7 133.1 155.4 126.95C147.65 123.55 145.15 121.9 143.8 119.15C143.2 117.85 142.9 116.95 142.9 115.35C142.9 110.1 146.9 106.95 152.9 107.35C157.05 107.65 159.7 109.25 162.3 112.95C163.1 114.25 163.9 115.1 164.1 114.95C169.35 111.7 178 105.85 178 105.55C177.8 104.65 175.05 101.15 173.2 99.15Z" fill="#FFF0E9"/>
</svg>
