<svg width="200" height="176" viewBox="0 0 200 176" fill="none" xmlns="http://www.w3.org/2000/svg">
<path d="M87.6456 12.7341C87.7172 24.8306 82.513 36.3575 73.3924 44.3037C72.6835 44.9367 73.2405 46.1518 74.1519 45.7974C82.6835 42.481 94.2025 32.5569 89.3418 12.5316C89.1392 11.3924 87.6456 11.6961 87.6456 12.7341ZM93.3924 12.7341C99.661 22.9622 101.15 35.418 97.4683 46.8354C97.1645 47.7215 98.2532 48.481 98.8608 47.7468C104.405 40.6582 109.24 26.5822 94.7595 11.3924C94.0253 10.7341 92.8861 11.7468 93.3924 12.6329V12.7341ZM100.38 12.3037C110.195 19.2523 116.519 30.1106 117.722 42.0759C117.668 42.5185 117.972 42.925 118.412 42.9994C118.851 43.0738 119.272 42.7899 119.367 42.3544C121.696 33.5189 120.38 18.4556 101.215 10.6329C100.203 10.2278 99.5443 11.5949 100.38 12.2025V12.3037ZM53.6456 38.6329C65.3156 35.1464 74.9528 26.8623 80.1519 15.848C80.6076 14.9367 82.0506 15.2911 81.8228 16.3037C77.443 36.5569 62.7848 40.7848 53.6709 40.2278C52.7089 40.2531 52.7342 38.9113 53.6456 38.6329Z" fill="#FFF0E9"/>
<path d="M94.9367 165.19C42.5823 165.19 0 131.063 0 89.1139C0 63.7975 15.6456 40.1772 41.8481 26.0253C49.443 21.9747 55.9494 17.8987 61.7468 14.3291C64.9367 12.3544 67.9494 10.5063 70.8608 8.78481C79.7468 3.51899 87.3418 0 94.9367 0C102.532 0 109.165 3.03797 117.468 7.94937C120 9.39241 122.532 10.962 125.241 12.6835C131.544 16.5823 138.658 20.9873 148.025 26.0253C174.228 40.1772 189.873 63.7722 189.873 89.1139C189.873 131.063 147.291 165.19 94.9367 165.19ZM94.9367 6.32911C88.8101 6.32911 82.2785 9.49367 74.0506 14.2532C71.1899 15.9241 68.2278 17.7722 65.0886 19.6962C59.1899 23.3418 52.4304 27.4684 44.8354 31.5949C20.7342 44.6329 6.32911 66.1266 6.32911 89.1139C6.32911 127.57 46.076 158.861 94.9367 158.861C143.797 158.861 183.544 127.57 183.544 89.1139C183.544 66.1266 169.139 44.6329 145.013 31.6456C135.443 26.5823 127.975 21.8228 121.924 18.0759C119.165 16.3797 116.633 14.8101 114.329 13.4177C106.658 8.86076 101.063 6.32911 94.9367 6.32911Z" fill="#FFF0E9"/>
</svg>
