<svg width="200" height="200" viewBox="0 0 200 200" fill="none" xmlns="http://www.w3.org/2000/svg">
<g clip-path="url(#clip0_19_9)">
<mask id="mask0_19_9" style="mask-type:luminance" maskUnits="userSpaceOnUse" x="-80" y="-80" width="360" height="360">
<path d="M279.474 100.379C279.474 199.608 199.013 279.98 99.8734 279.98C0.733835 279.98 -79.7273 199.608 -79.7273 100.379C-79.7273 1.14965 0.733835 -79.2217 99.8734 -79.2217C199.013 -79.2217 279.474 1.14965 279.474 100.379Z" fill="white"/>
</mask>
<g mask="url(#mask0_19_9)">
<path d="M98.7412 6.67432C91.0262 6.70555 83.6391 7.3771 77.1423 8.50156C58.0187 11.8593 54.536 18.8403 54.536 31.7481V48.8024H99.7407V54.4793H37.5754C24.4255 54.4793 12.9311 62.2881 9.33126 77.1403C5.18483 94.1633 4.96618 104.807 9.33126 122.556C12.5328 135.792 20.1932 145.217 33.3353 145.217H46.6335V122.587C46.6335 107.852 59.5648 94.9208 74.9089 94.9208H122.23C134.794 94.9208 146.695 84.6679 146.695 72.1974V31.8418C146.695 19.7305 134.521 10.6099 122.23 8.59527C114.484 7.31463 106.433 6.73679 98.7256 6.76802M74.2921 20.3708C78.9617 20.3708 82.7723 24.2127 82.7723 28.9448C82.7723 33.6457 78.9617 37.4251 74.2921 37.4251C69.5912 37.4251 65.7806 33.6457 65.7806 28.9448C65.7806 24.2205 69.56 20.3708 74.2921 20.3708Z" fill="#FFF0E9"/>
<path d="M153.129 54.4639V74.3215C153.129 89.6968 139.924 100.832 124.885 100.832H75.2838C62.9304 100.832 52.6775 113.154 52.6775 125.391V167.972C52.6775 180.083 63.3208 187.189 75.2838 190.664C89.5893 194.81 105.176 195.607 122.292 190.664C133.67 187.4 144.899 180.84 144.899 167.972V150.917H99.7563V145.24H167.536C180.655 145.24 185.566 136.151 190.142 122.579C194.867 108.578 194.625 95.0927 190.142 77.1638C186.878 64.2013 180.686 54.5029 167.536 54.5029M125.166 162.302C129.836 162.302 133.646 166.082 133.646 170.783C133.646 175.484 129.867 179.357 125.166 179.357C120.465 179.357 116.654 175.484 116.654 170.783C116.654 166.082 120.465 162.302 125.166 162.302Z" fill="#FFF0E9"/>
</g>
</g>
<defs>
<clipPath id="clip0_19_9">
<rect width="200" height="200" fill="white"/>
</clipPath>
</defs>
</svg>
