<svg width="200" height="200" viewBox="0 0 200 200" fill="none" xmlns="http://www.w3.org/2000/svg">
<g clip-path="url(#clip0_19_5)">
<path d="M130.475 144.017C139.408 142.215 147.924 138.752 155.579 133.808C167.347 126.207 176.669 115.369 182.426 102.598C188.181 89.8286 190.125 75.6687 188.023 61.821C185.922 47.9725 179.865 35.0258 170.581 24.5377C161.146 14.0477 149.028 6.46103 135.533 2.6877C122.038 -1.08466 107.741 -0.882106 94.3583 3.27103C80.9775 7.42292 69.0798 15.3494 60.0942 26.0985C53.9601 33.437 49.334 41.9136 46.4809 51.0427C55.2476 46.7598 64.6868 44.0197 74.3842 42.9427C80.8749 33.8982 90.1401 27.2192 100.773 23.9202C110.177 21.0017 120.224 20.8593 129.707 23.5102C139.188 26.1609 147.703 31.4924 154.229 38.8644C160.753 46.2348 165.009 55.3323 166.487 65.0635C167.963 74.7942 166.597 84.7441 162.553 93.7169C158.507 102.691 151.957 110.307 143.688 115.648C140.268 117.857 136.597 119.65 132.752 120.989C133.004 123.048 133.135 125.144 133.135 127.272C133.141 132.971 132.191 138.632 130.325 144.017H130.475ZM116.083 91.7744C126.608 91.7744 135.14 83.246 135.14 72.7269C135.14 62.2069 126.608 53.6794 116.083 53.6794C105.558 53.6794 97.0267 62.2069 97.0267 72.7269C97.0267 83.246 105.558 91.7744 116.083 91.7744ZM69.7208 55.9435C60.7151 57.7335 52.1294 61.2114 44.4167 66.1935C32.6497 73.7942 23.3277 84.6311 17.5709 97.4019C11.8155 110.171 9.87147 124.331 11.9725 138.179C14.0746 152.027 20.1321 164.974 29.4167 175.463C38.7031 185.954 50.8208 193.54 64.3142 197.312C77.8092 201.084 92.1062 200.882 105.489 196.73C118.87 192.578 130.768 184.651 139.753 173.902C145.904 166.543 150.538 158.041 153.389 148.884C144.623 153.188 135.18 155.948 125.475 157.042C124.738 158.069 123.963 159.069 123.153 160.039C116.839 167.592 108.478 173.163 99.075 176.08C89.6707 178.999 79.624 179.141 70.1408 176.49C60.659 173.84 52.144 168.508 45.6183 161.136C39.0944 153.766 34.8381 144.668 33.3609 134.937C31.8842 125.206 33.25 115.256 37.2942 106.283C41.3398 97.3083 47.8908 89.693 56.16 84.3519C59.5157 82.1842 63.1139 80.4171 66.8808 79.0869C66.6861 77.2622 66.5887 75.4285 66.5892 73.5935C66.5892 67.3902 67.6933 61.4435 69.7208 55.9435ZM83.8859 108.225C73.3609 108.225 64.8292 116.754 64.8292 127.274C64.8292 137.793 73.3617 146.32 83.8859 146.32C94.4109 146.32 102.943 137.793 102.943 127.274C102.943 116.754 94.4109 108.225 83.8859 108.225Z" fill="#FFF0E9"/>
</g>
<defs>
<clipPath id="clip0_19_5">
<rect width="200" height="200" fill="white"/>
</clipPath>
</defs>
</svg>
