<svg width="200" height="202" viewBox="0 0 200 202" fill="none" xmlns="http://www.w3.org/2000/svg">
<path fill-rule="evenodd" clip-rule="evenodd" d="M99.219 0L138.974 22.9366V35.5481L187.093 63.3363V110.871L200 118.322V164.221L160.271 187.157L142.633 176.956L99.7481 201.716L57.1201 177.1L39.7292 187.157L0 164.182V118.322L12.4041 111.161V63.3363L59.4899 36.1533L59.5162 36.1522V22.9366L99.219 0ZM138.974 47.4745V68.8092L99.2447 91.7458L59.5162 68.8092V48.0657L59.4899 48.0668L22.7297 69.2997V105.199L39.7292 95.3853L79.4576 118.322V164.182L67.4384 171.132L99.7481 189.79L132.315 170.991L120.542 164.182V118.322L160.271 95.3853L176.766 104.909V69.2997L138.974 47.4745ZM130.868 158.27V130.274L155.108 144.266V172.262L130.868 158.27ZM189.674 130.235L165.434 144.227V172.262L189.674 158.232V130.235ZM10.3259 158.232V130.235L34.5661 144.227V172.223L10.3259 158.232ZM69.132 130.235L44.8917 144.227V172.223L69.132 158.232V130.235ZM136.031 121.329L160.271 107.338L184.511 121.329L160.271 135.334L136.031 121.329ZM39.7292 107.299L15.4888 121.329L39.7292 135.295L63.969 121.329L39.7292 107.299ZM69.8418 62.8463V34.8501L94.0559 48.8543V76.8377L69.8418 62.8463ZM128.622 34.8501L104.408 48.8543V76.8248L128.622 62.8463V34.8501ZM75.0049 25.9178L99.219 11.9264L123.459 25.9178L99.219 39.9097L75.0049 25.9178Z" fill="#FFF0E9"/>
</svg>
