<svg width="107" height="48" viewBox="0 0 107 48" fill="none" xmlns="http://www.w3.org/2000/svg">
<path d="M14.5 36.8182L2 24.4091L14.5 12" stroke="white" stroke-width="3" stroke-linecap="round" stroke-linejoin="round"/>
<path d="M94.0042 12.0909L104.857 24.5L94.0042 36.9091M87.8025 5L78.5 44" stroke="white" stroke-width="3" stroke-linecap="round" stroke-linejoin="round"/>
<rect x="19" y="29" width="54" height="12" fill="#EB6424"/>
<path d="M41.12 32.4C41.12 33.2267 41.2533 33.84 41.52 34.24C41.7867 34.6133 42.2267 34.8933 42.84 35.08L42 37.48C39.9467 37.2133 38.6667 36.2133 38.16 34.48C37.4133 35.44 36.4667 36.1733 35.32 36.68C34.2 37.1867 32.9467 37.44 31.56 37.44C29.4533 37.44 27.7867 36.8533 26.56 35.68C25.36 34.5067 24.76 32.9333 24.76 30.96C24.76 28.8 25.6 27.1333 27.28 25.96C28.9867 24.7867 31.4267 24.2 34.6 24.2H37.72V22.48C37.72 20.9867 37.2933 19.92 36.44 19.28C35.5867 18.6133 34.3467 18.28 32.72 18.28C31.12 18.28 29.2933 18.64 27.24 19.36L26.32 16.8C28.8 15.92 31.1067 15.48 33.24 15.48C35.8 15.48 37.7467 16.08 39.08 17.28C40.44 18.48 41.12 20.1467 41.12 22.28V32.4ZM32.4 34.92C33.44 34.92 34.4267 34.6533 35.36 34.12C36.32 33.5867 37.1067 32.8533 37.72 31.92V26.52H34.68C32.44 26.52 30.8267 26.8933 29.84 27.64C28.8533 28.3867 28.36 29.48 28.36 30.92C28.36 33.5867 29.7067 34.92 32.4 34.92ZM58.2244 31.8C58.2244 33.6933 59.3844 34.64 61.7044 34.64C62.7977 34.64 63.971 34.4 65.2244 33.92L66.1044 36.36C64.771 37.08 63.1044 37.44 61.1044 37.44C59.211 37.44 57.691 36.92 56.5444 35.88C55.4244 34.84 54.8644 33.4267 54.8644 31.64V10.12H48.3844V7.44H58.2244V31.8Z" fill="white"/>
</svg>
