<svg width="451" height="48" viewBox="0 0 451 48" fill="none" xmlns="http://www.w3.org/2000/svg">
<rect x="23" y="29" width="387" height="12" fill="#EB6424"/>
<path d="M14.5 36.8182L2 24.4091L14.5 12" stroke="white" stroke-width="3" stroke-linecap="round" stroke-linejoin="round"/>
<path d="M436.357 11.0909L448.857 23.5L436.357 35.9091M429.214 4L418.5 43" stroke="white" stroke-width="3" stroke-linecap="round" stroke-linejoin="round"/>
<path d="M30.94 29.96L28.74 37H25.3L34.3 9.44H38.7L47.66 37H44.06L41.86 29.96H30.94ZM40.94 27.08L36.42 12.4L31.86 27.08H40.94ZM52.4844 15.92H55.3644L55.6444 18.88C56.471 17.8133 57.511 16.9867 58.7644 16.4C60.0444 15.7867 61.3244 15.48 62.6044 15.48C66.551 15.48 68.5244 17.56 68.5244 21.72V37H65.1644V24.2C65.1644 22.6267 65.071 21.4267 64.8844 20.6C64.7244 19.7733 64.391 19.16 63.8844 18.76C63.3777 18.36 62.6044 18.16 61.5644 18.16C60.4177 18.16 59.3377 18.5067 58.3244 19.2C57.311 19.8933 56.4844 20.72 55.8444 21.68V37H52.4844V15.92ZM92.4688 7.44V37H89.5088L89.1888 34.24C88.4154 35.3067 87.5221 36.1067 86.5088 36.64C85.4954 37.1733 84.4021 37.44 83.2288 37.44C80.5621 37.44 78.5488 36.4667 77.1888 34.52C75.8554 32.5733 75.1888 29.8933 75.1888 26.48C75.1888 24.3733 75.5221 22.4933 76.1888 20.84C76.8554 19.16 77.8021 17.8533 79.0288 16.92C80.2821 15.96 81.7488 15.48 83.4288 15.48C85.7488 15.48 87.6421 16.32 89.1088 18V7.04L92.4688 7.44ZM84.3088 18.2C82.5488 18.2 81.1888 18.8933 80.2288 20.28C79.2954 21.6667 78.8288 23.7333 78.8288 26.48C78.8288 29.2 79.2554 31.2667 80.1088 32.68C80.9888 34.0667 82.2554 34.76 83.9088 34.76C85.9088 34.76 87.6421 33.64 89.1088 31.4V20.92C88.5221 20.04 87.8154 19.3733 86.9888 18.92C86.1621 18.44 85.2688 18.2 84.3088 18.2ZM114.693 15.48C115.546 15.48 116.533 15.6267 117.653 15.92L117.173 23.08H114.453V18.56H114.253C111 18.56 108.693 20.88 107.333 25.52V34.4H111.613V37H100.653V34.4H103.973V18.52H100.653V15.92H106.493L107.133 20.92C107.986 19.1067 109 17.7467 110.173 16.84C111.373 15.9333 112.88 15.48 114.693 15.48ZM127.118 27.64C127.198 29.96 127.798 31.7067 128.918 32.88C130.064 34.0533 131.504 34.64 133.238 34.64C134.278 34.64 135.224 34.4933 136.078 34.2C136.958 33.88 137.891 33.4 138.878 32.76L140.438 35C139.451 35.7733 138.318 36.3733 137.038 36.8C135.784 37.2267 134.518 37.44 133.238 37.44C130.198 37.44 127.824 36.4533 126.118 34.48C124.438 32.48 123.598 29.8133 123.598 26.48C123.598 24.3733 123.971 22.4933 124.718 20.84C125.464 19.16 126.531 17.8533 127.918 16.92C129.304 15.96 130.918 15.48 132.758 15.48C135.424 15.48 137.518 16.4133 139.038 18.28C140.584 20.12 141.358 22.64 141.358 25.84C141.358 26.4533 141.331 27.0533 141.278 27.64H127.118ZM132.798 18.24C131.171 18.24 129.851 18.8267 128.838 20C127.824 21.1467 127.251 22.84 127.118 25.08H138.078C138.051 22.8667 137.571 21.1733 136.638 20C135.704 18.8267 134.424 18.24 132.798 18.24ZM163.542 32.4C163.542 33.2267 163.675 33.84 163.942 34.24C164.209 34.6133 164.649 34.8933 165.262 35.08L164.422 37.48C162.369 37.2133 161.089 36.2133 160.582 34.48C159.835 35.44 158.889 36.1733 157.742 36.68C156.622 37.1867 155.369 37.44 153.982 37.44C151.875 37.44 150.209 36.8533 148.982 35.68C147.782 34.5067 147.182 32.9333 147.182 30.96C147.182 28.8 148.022 27.1333 149.702 25.96C151.409 24.7867 153.849 24.2 157.022 24.2H160.142V22.48C160.142 20.9867 159.715 19.92 158.862 19.28C158.009 18.6133 156.769 18.28 155.142 18.28C153.542 18.28 151.715 18.64 149.662 19.36L148.742 16.8C151.222 15.92 153.529 15.48 155.662 15.48C158.222 15.48 160.169 16.08 161.502 17.28C162.862 18.48 163.542 20.1467 163.542 22.28V32.4ZM154.822 34.92C155.862 34.92 156.849 34.6533 157.782 34.12C158.742 33.5867 159.529 32.8533 160.142 31.92V26.52H157.102C154.862 26.52 153.249 26.8933 152.262 27.64C151.275 28.3867 150.782 29.48 150.782 30.92C150.782 33.5867 152.129 34.92 154.822 34.92ZM197.831 9.44H201.271V33.92H213.871L213.431 37H197.831V9.44ZM228.415 15.48C231.322 15.48 233.548 16.4667 235.095 18.44C236.668 20.3867 237.455 23.0533 237.455 26.44C237.455 29.7467 236.655 32.4133 235.055 34.44C233.482 36.44 231.255 37.44 228.375 37.44C225.468 37.44 223.228 36.4667 221.655 34.52C220.082 32.5467 219.295 29.8667 219.295 26.48C219.295 23.1467 220.082 20.48 221.655 18.48C223.255 16.48 225.508 15.48 228.415 15.48ZM228.415 18.24C226.575 18.24 225.202 18.92 224.295 20.28C223.388 21.64 222.935 23.7067 222.935 26.48C222.935 29.2533 223.375 31.32 224.255 32.68C225.162 34.0133 226.535 34.68 228.375 34.68C230.215 34.68 231.575 34.0133 232.455 32.68C233.362 31.32 233.815 29.24 233.815 26.44C233.815 23.6667 233.362 21.6133 232.455 20.28C231.575 18.92 230.228 18.24 228.415 18.24ZM253.919 34.56C255.759 34.56 257.586 33.9467 259.399 32.72L260.999 34.92C260.119 35.6933 259.026 36.3067 257.719 36.76C256.413 37.2133 255.146 37.44 253.919 37.44C250.799 37.44 248.359 36.4667 246.599 34.52C244.866 32.5467 243.999 29.8933 243.999 26.56C243.999 24.4533 244.386 22.56 245.159 20.88C245.959 19.2 247.106 17.88 248.599 16.92C250.093 15.96 251.866 15.48 253.919 15.48C256.639 15.48 258.986 16.3067 260.959 17.96L259.319 20.16C257.479 18.9333 255.666 18.32 253.879 18.32C251.986 18.32 250.466 19.0267 249.319 20.44C248.199 21.8267 247.639 23.8667 247.639 26.56C247.639 29.2533 248.199 31.2667 249.319 32.6C250.466 33.9067 251.999 34.56 253.919 34.56ZM283.464 32.4C283.464 33.2267 283.597 33.84 283.864 34.24C284.13 34.6133 284.57 34.8933 285.184 35.08L284.344 37.48C282.29 37.2133 281.01 36.2133 280.504 34.48C279.757 35.44 278.81 36.1733 277.664 36.68C276.544 37.1867 275.29 37.44 273.904 37.44C271.797 37.44 270.13 36.8533 268.904 35.68C267.704 34.5067 267.104 32.9333 267.104 30.96C267.104 28.8 267.944 27.1333 269.624 25.96C271.33 24.7867 273.77 24.2 276.944 24.2H280.064V22.48C280.064 20.9867 279.637 19.92 278.784 19.28C277.93 18.6133 276.69 18.28 275.064 18.28C273.464 18.28 271.637 18.64 269.584 19.36L268.664 16.8C271.144 15.92 273.45 15.48 275.584 15.48C278.144 15.48 280.09 16.08 281.424 17.28C282.784 18.48 283.464 20.1467 283.464 22.28V32.4ZM274.744 34.92C275.784 34.92 276.77 34.6533 277.704 34.12C278.664 33.5867 279.45 32.8533 280.064 31.92V26.52H277.024C274.784 26.52 273.17 26.8933 272.184 27.64C271.197 28.3867 270.704 29.48 270.704 30.92C270.704 33.5867 272.05 34.92 274.744 34.92ZM309.088 35.92C308.368 36.4 307.488 36.7733 306.448 37.04C305.435 37.3067 304.421 37.44 303.408 37.44C301.195 37.44 299.461 36.8667 298.208 35.72C296.955 34.5467 296.328 33.0133 296.328 31.12V18.56H291.488V15.92H296.328V11.16L299.688 10.76V15.92H307.008L306.568 18.56H299.688V31.08C299.688 32.28 300.008 33.1733 300.648 33.76C301.288 34.3467 302.315 34.64 303.728 34.64C305.168 34.64 306.515 34.3067 307.768 33.64L309.088 35.92ZM318.993 27.64C319.073 29.96 319.673 31.7067 320.793 32.88C321.939 34.0533 323.379 34.64 325.113 34.64C326.153 34.64 327.099 34.4933 327.953 34.2C328.833 33.88 329.766 33.4 330.753 32.76L332.312 35C331.326 35.7733 330.193 36.3733 328.913 36.8C327.659 37.2267 326.393 37.44 325.113 37.44C322.073 37.44 319.699 36.4533 317.993 34.48C316.313 32.48 315.473 29.8133 315.473 26.48C315.473 24.3733 315.846 22.4933 316.593 20.84C317.339 19.16 318.406 17.8533 319.793 16.92C321.179 15.96 322.793 15.48 324.633 15.48C327.299 15.48 329.393 16.4133 330.913 18.28C332.459 20.12 333.233 22.64 333.233 25.84C333.233 26.4533 333.206 27.0533 333.153 27.64H318.993ZM324.673 18.24C323.046 18.24 321.726 18.8267 320.713 20C319.699 21.1467 319.126 22.84 318.993 25.08H329.953C329.926 22.8667 329.446 21.1733 328.513 20C327.579 18.8267 326.299 18.24 324.673 18.24ZM348.537 31.8C348.537 33.6933 349.697 34.64 352.017 34.64C353.11 34.64 354.284 34.4 355.537 33.92L356.417 36.36C355.084 37.08 353.417 37.44 351.417 37.44C349.524 37.44 348.004 36.92 346.857 35.88C345.737 34.84 345.177 33.4267 345.177 31.64V10.12H338.697V7.44H348.537V31.8ZM372.521 31.8C372.521 33.6933 373.681 34.64 376.001 34.64C377.095 34.64 378.268 34.4 379.521 33.92L380.401 36.36C379.068 37.08 377.401 37.44 375.401 37.44C373.508 37.44 371.988 36.92 370.841 35.88C369.721 34.84 369.161 33.4267 369.161 31.64V10.12H362.681V7.44H372.521V31.8ZM396.266 6.08C397.012 6.08 397.612 6.30666 398.066 6.76C398.519 7.18667 398.746 7.74667 398.746 8.44C398.746 9.13333 398.519 9.70667 398.066 10.16C397.612 10.5867 397.012 10.8 396.266 10.8C395.546 10.8 394.959 10.5867 394.506 10.16C394.079 9.70667 393.866 9.13333 393.866 8.44C393.866 7.74667 394.079 7.18667 394.506 6.76C394.959 6.30666 395.546 6.08 396.266 6.08ZM398.946 34.32H404.866V37H389.106V34.32H395.586V18.6H389.306V15.92H398.946V34.32Z" fill="white"/>
</svg>
